<svg id="Grupo_2107" data-name="Grupo 2107" xmlns="http://www.w3.org/2000/svg" xmlns:xlink="http://www.w3.org/1999/xlink" width="52.414" height="47.185" viewBox="0 0 52.414 47.185">
  <defs>
    <clipPath id="clip-path">
      <rect id="Retângulo_55" data-name="Retângulo 55" width="52.414" height="47.185" fill="#02e46e"/>
    </clipPath>
  </defs>
  <g id="Grupo_2106" data-name="Grupo 2106" clip-path="url(#clip-path)">
    <path id="Caminho_318" data-name="Caminho 318" d="M50.623,36.547H50.36l.013-27.373a2.3,2.3,0,0,0-2.3-2.3l-3.347,0h0a.768.768,0,0,0,0,1.536l3.347,0a.767.767,0,0,1,.767.767l-.013,27.374H46.817V21.158a2.832,2.832,0,0,0-2.829-2.83H38.354V8.4l2.786,0h0a.768.768,0,0,0,0-1.536l-2.787,0V2.315A2.317,2.317,0,0,0,36.039,0H2.315A2.317,2.317,0,0,0,0,2.315V28.489a2.318,2.318,0,0,0,2.043,2.3l0,5.76H1.791A1.792,1.792,0,0,0,0,38.339a3.843,3.843,0,0,0,3.839,3.839H6.633a.768.768,0,0,0,0-1.536H3.839a2.306,2.306,0,0,1-2.3-2.3.256.256,0,0,1,.256-.256H28.35v2.559H10.216a.768.768,0,0,0,0,1.536H28.35v2.178a2.833,2.833,0,0,0,2.83,2.83h12.81a2.832,2.832,0,0,0,2.829-2.83V42.178h1.758a3.843,3.843,0,0,0,3.839-3.839A1.794,1.794,0,0,0,50.623,36.547ZM1.536,28.489V2.315a.78.78,0,0,1,.779-.779H36.04a.78.78,0,0,1,.779.779V18.329H35.386V3.737a.768.768,0,0,0-.768-.768H11.453a.768.768,0,1,0,0,1.536h22.4V18.329H31.179a2.833,2.833,0,0,0-2.83,2.83V26.3H4.5V4.5H7.87a.768.768,0,0,0,0-1.536H3.737a.768.768,0,0,0-.768.768v23.33a.768.768,0,0,0,.768.768H28.35v1.433H2.315a.78.78,0,0,1-.779-.779M45.282,44.356a1.3,1.3,0,0,1-1.293,1.294H31.179a1.3,1.3,0,0,1-1.294-1.294V35.848a.768.768,0,1,0-1.536,0v.7H3.576l0-5.744H28.35v1.461a.768.768,0,1,0,1.536,0V21.158a1.3,1.3,0,0,1,1.294-1.294h12.81a1.3,1.3,0,0,1,1.293,1.294Zm3.293-3.713H46.817V38.083h3.805a.256.256,0,0,1,.256.256,2.306,2.306,0,0,1-2.3,2.3" fill="#02e46e"/>
    <path id="Caminho_319" data-name="Caminho 319" d="M120.418,89.171a7.631,7.631,0,1,0-7.631-7.631A7.64,7.64,0,0,0,120.418,89.171Zm0-13.726a6.1,6.1,0,1,1-6.1,6.1,6.1,6.1,0,0,1,6.1-6.1" transform="translate(-101.241 -66.343)" fill="#02e46e"/>
    <path id="Caminho_320" data-name="Caminho 320" d="M156.439,126.18a.768.768,0,0,0,.574.258h.025a.767.767,0,0,0,.581-.3l3.523-4.521a.768.768,0,1,0-1.211-.944l-2.956,3.793-1.544-1.738a.768.768,0,0,0-1.148,1.02Z" transform="translate(-138.315 -108.058)" fill="#02e46e"/>
    <path id="Caminho_321" data-name="Caminho 321" d="M346.974,206.686h2.749a.768.768,0,0,0,0-1.536h-2.749a.768.768,0,1,0,0,1.536" transform="translate(-310.764 -184.149)" fill="#02e46e"/>
    <path id="Caminho_322" data-name="Caminho 322" d="M313.5,260.232a6.117,6.117,0,1,0,6.117,6.117,6.124,6.124,0,0,0-6.117-6.117m0,10.7a4.581,4.581,0,1,1,4.581-4.581,4.586,4.586,0,0,1-4.581,4.581" transform="translate(-275.914 -233.592)" fill="#02e46e"/>
    <path id="Caminho_323" data-name="Caminho 323" d="M346.482,297.857a.768.768,0,0,0-1.078.134l-1.98,2.541-.946-1.066a.768.768,0,0,0-1.148,1.02l1.559,1.755a.768.768,0,0,0,.574.258h.025a.768.768,0,0,0,.581-.3l2.547-3.269A.768.768,0,0,0,346.482,297.857Z" transform="translate(-306.214 -267.219)" fill="#02e46e"/>
  </g>
</svg>
