<svg xmlns="http://www.w3.org/2000/svg" xmlns:xlink="http://www.w3.org/1999/xlink" width="35" height="35" viewBox="0 0 35 35">
  <defs>
    <clipPath id="clip-path">
      <rect id="Retângulo_41" data-name="Retângulo 41" width="35" height="35" fill="none"/>
    </clipPath>
  </defs>
  <g id="Grupo_22" data-name="Grupo 22" clip-path="url(#clip-path)">
    <path id="Caminho_24" data-name="Caminho 24" d="M17.5,35q-.859,0-1.715-.085t-1.7-.252q-.843-.167-1.666-.417T10.8,33.667q-.8-.328-1.553-.733T7.777,32.05q-.714-.478-1.379-1.023T5.126,29.874q-.609-.608-1.154-1.272t-1.023-1.38q-.477-.715-.883-1.473T1.332,24.2Q1,23.4.754,22.579T.336,20.914q-.168-.843-.252-1.7C.028,18.645,0,18.072,0,17.5s.028-1.146.084-1.716.14-1.137.252-1.7.251-1.117.418-1.665.359-1.088.578-1.617S1.8,9.756,2.066,9.25s.565-1,.883-1.473.66-.936,1.023-1.38S4.72,5.53,5.126,5.125s.829-.79,1.272-1.153.9-.7,1.379-1.023.968-.613,1.473-.884,1.023-.514,1.553-.733S11.871.919,12.42.753s1.1-.306,1.666-.417,1.128-.2,1.7-.252S16.927,0,17.5,0s1.145.027,1.715.084,1.137.14,1.7.252,1.117.251,1.666.417,1.087.359,1.617.579,1.047.464,1.552.733,1,.566,1.473.884.937.659,1.38,1.023.867.748,1.272,1.153.79.829,1.154,1.272.7.9,1.023,1.38.612.967.883,1.473.514,1.023.734,1.553.412,1.068.578,1.617.306,1.1.418,1.665.195,1.129.252,1.7S35,16.927,35,17.5s-.028,1.145-.084,1.715-.14,1.137-.252,1.7-.251,1.117-.418,1.665-.359,1.088-.578,1.617-.464,1.047-.734,1.553-.565,1-.883,1.473-.66.936-1.023,1.38-.748.867-1.154,1.272-.829.79-1.272,1.153-.9.7-1.38,1.023-.967.613-1.473.884-1.023.514-1.552.733-1.069.413-1.617.579-1.1.306-1.666.417-1.128.2-1.7.252S18.073,35,17.5,35" fill="#02e46e"/>
    <path id="Caminho_25" data-name="Caminho 25" d="M18.455,24.606V13.911l4.913,4.913,1.239-1.248-7.031-7.031-7.031,7.031,1.24,1.239,4.912-4.9V24.606Z" fill="#fff"/>
  </g>
</svg>
