<svg xmlns="http://www.w3.org/2000/svg" width="25.941" height="23.375" viewBox="0 0 25.941 23.375">
  <g id="Grupo_888" data-name="Grupo 888" transform="translate(0)">
    <g id="Grupo_887" data-name="Grupo 887">
      <path id="Caminho_39" data-name="Caminho 39" d="M1466.317-40.394c3.463,0,3.873.012,5.241.068a7.876,7.876,0,0,1,2.409.4,4.091,4.091,0,0,1,1.491.874,3.608,3.608,0,0,1,.97,1.344,5.915,5.915,0,0,1,.446,2.17c.063,1.233.076,1.6.076,4.723s-.013,3.49-.076,4.723a5.915,5.915,0,0,1-.446,2.17,3.608,3.608,0,0,1-.97,1.344,4.092,4.092,0,0,1-1.491.874,7.877,7.877,0,0,1-2.409.4c-1.368.056-1.778.068-5.241.068s-3.874-.012-5.241-.068a7.876,7.876,0,0,1-2.409-.4,4.089,4.089,0,0,1-1.491-.874,3.607,3.607,0,0,1-.97-1.344,5.913,5.913,0,0,1-.447-2.17c-.062-1.233-.075-1.6-.075-4.723s.013-3.49.075-4.723a5.913,5.913,0,0,1,.447-2.17,3.607,3.607,0,0,1,.97-1.344,4.088,4.088,0,0,1,1.491-.874,7.875,7.875,0,0,1,2.409-.4c1.367-.056,1.778-.068,5.241-.068m0-2.106c-3.523,0-3.964.013-5.348.07a10.445,10.445,0,0,0-3.149.543,6.473,6.473,0,0,0-2.3,1.348,5.71,5.71,0,0,0-1.5,2.07,7.85,7.85,0,0,0-.6,2.837c-.063,1.247-.078,1.645-.078,4.819s.015,3.572.078,4.819a7.85,7.85,0,0,0,.6,2.837,5.71,5.71,0,0,0,1.5,2.07,6.469,6.469,0,0,0,2.3,1.348,10.445,10.445,0,0,0,3.149.543c1.383.057,1.825.07,5.348.07s3.964-.013,5.348-.07a10.442,10.442,0,0,0,3.149-.543,6.462,6.462,0,0,0,2.3-1.348,5.7,5.7,0,0,0,1.5-2.07,7.844,7.844,0,0,0,.6-2.837c.063-1.247.078-1.645.078-4.819s-.015-3.572-.078-4.819a7.844,7.844,0,0,0-.6-2.837,5.7,5.7,0,0,0-1.5-2.07,6.466,6.466,0,0,0-2.3-1.348,10.442,10.442,0,0,0-3.149-.543c-1.383-.057-1.825-.07-5.348-.07Z" transform="translate(-1453.347 42.5)" fill="#fff"/>
      <path id="Caminho_40" data-name="Caminho 40" d="M1480.683-21.824c-3.679,0-6.661,2.687-6.661,6s2.982,6,6.661,6,6.66-2.687,6.66-6S1484.361-21.824,1480.683-21.824Zm0,9.9a4.127,4.127,0,0,1-4.324-3.9,4.127,4.127,0,0,1,4.324-3.9,4.126,4.126,0,0,1,4.323,3.9A4.126,4.126,0,0,1,1480.683-11.927Z" transform="translate(-1467.712 27.51)" fill="#fff"/>
      <ellipse id="Elipse_57" data-name="Elipse 57" cx="1.556" cy="1.402" rx="1.556" ry="1.402" transform="translate(18.337 4.046)" fill="#fff"/>
    </g>
  </g>
</svg>
