<svg id="Grupo_2113" data-name="Grupo 2113" xmlns="http://www.w3.org/2000/svg" xmlns:xlink="http://www.w3.org/1999/xlink" width="60.318" height="42.01" viewBox="0 0 60.318 42.01">
  <defs>
    <clipPath id="clip-path">
      <rect id="Retângulo_72" data-name="Retângulo 72" width="60.318" height="42.01" fill="#02e46e"/>
    </clipPath>
  </defs>
  <g id="Grupo_2112" data-name="Grupo 2112" clip-path="url(#clip-path)">
    <path id="Caminho_334" data-name="Caminho 334" d="M72.151,157.486l-4.807-1.037a2.12,2.12,0,0,0-2.545,2.073V160.5c0,1.6,1.225,1.979,2.733,1.979h5.278c1.037,0,2.073-.189,2.073-1.319v-.283A3.364,3.364,0,0,0,72.151,157.486ZM66.591,160.5v-2.073c0-.188.188-.377.377-.283l4.807,1.037A1.723,1.723,0,0,1,73,160.6c-3.3,0-6.126,0-6.409-.094" transform="translate(-57.166 -137.977)" fill="#02e46e"/>
    <path id="Caminho_335" data-name="Caminho 335" d="M57.773,9.425l-6.786-3.2a11.528,11.528,0,0,0-7.068-.942L42.882,3.2A5.009,5.009,0,0,0,38.264,0H16.21a4.923,4.923,0,0,0-4.618,3.11L7.917,10.744a4.6,4.6,0,0,0-3.77-1.979h-1.6A2.534,2.534,0,0,0,0,11.31v1.037a2.534,2.534,0,0,0,2.545,2.545H5A7.609,7.609,0,0,0,3.487,19.6v5.655A9.243,9.243,0,0,0,5.749,31.29v4.241a3.379,3.379,0,0,0,3.393,3.393h3.487a3.379,3.379,0,0,0,3.393-3.393v-1.7H34.871A25.638,25.638,0,0,0,45.615,41.94a.8.8,0,0,0,.66,0c.094-.094,14.043-5.184,14.043-17.907V13.477A4.626,4.626,0,0,0,57.773,9.425ZM13.289,3.864A3.065,3.065,0,0,1,16.21,1.885H38.264A3.231,3.231,0,0,1,41.28,3.958l.848,1.791A5.765,5.765,0,0,0,41,6.22l-6.786,3.2a4.485,4.485,0,0,0-2.545,3.958H8.576C8.953,12.818,8.576,13.76,13.289,3.864Zm-11.4,8.482V11.31a.644.644,0,0,1,.66-.66h1.6A3.14,3.14,0,0,1,6.88,12.629,1.655,1.655,0,0,1,6.5,13.1H2.545a.8.8,0,0,1-.66-.754m12.252,23.09a1.489,1.489,0,0,1-1.508,1.508H9.048A1.434,1.434,0,0,1,7.54,35.437V32.7a7.556,7.556,0,0,0,3.77,1.037h2.827ZM11.215,31.95c-3.393,0-6.032-3.3-6.032-6.786V19.509a6.389,6.389,0,0,1,1.791-4.335H31.667v8.294H21.3a.944.944,0,0,0-.942.942.89.89,0,0,0,.942.942H31.761a10.172,10.172,0,0,0,.283,1.791H21.3a.944.944,0,0,0-.942.942.89.89,0,0,0,.942.942H32.421A13.777,13.777,0,0,0,33.74,31.95Zm47.217-7.917c0,10.461-10.556,15.268-12.441,16.022-6.786-2.733-12.441-8.576-12.441-16.022V13.477a2.58,2.58,0,0,1,1.508-2.356l6.786-3.2a9.583,9.583,0,0,1,8.482,0l6.786,3.2a2.75,2.75,0,0,1,1.508,2.356V24.033Z" fill="#02e46e"/>
    <path id="Caminho_336" data-name="Caminho 336" d="M326.238,85.628l-6.22-2.922a6.99,6.99,0,0,0-6.126,0l-6.126,2.922a1.083,1.083,0,0,0-.565.848v9.9c0,7.445,6.5,11.5,9.33,12.912a1.308,1.308,0,0,0,.848,0c2.827-1.414,9.33-5.466,9.33-12.912v-9.9A.99.99,0,0,0,326.238,85.628Zm-1.319,10.744c0,6.032-5.278,9.613-7.917,11.027-3.11-1.7-7.917-5.089-7.917-11.027v-9.33l5.655-2.733a5.417,5.417,0,0,1,4.524,0l5.655,2.733Z" transform="translate(-271.009 -72.34)" fill="#02e46e"/>
    <path id="Caminho_337" data-name="Caminho 337" d="M347.781,169.316a1.027,1.027,0,0,0-1.319.188.931.931,0,0,0,.188,1.319l3.581,2.733a1.027,1.027,0,0,0,1.319-.188l5.278-6.88a.942.942,0,1,0-1.508-1.131l-4.712,6.126Z" transform="translate(-305.464 -145.566)" fill="#02e46e"/>
  </g>
</svg>
