<svg xmlns="http://www.w3.org/2000/svg" width="31.847" height="19.036" viewBox="0 0 31.847 19.036">
  <path id="Mail" d="M4.809,19.036a5.584,5.584,0,0,1-2.824-.757l.983-.928,9.152-8.629,3.451,2.042.163.05h.055a.68.68,0,0,0,.171,0,.663.663,0,0,0,.085.005.671.671,0,0,0,.086-.005h.055l.115-.05,3.479-2.055,9.105,8.617.961.909a5.872,5.872,0,0,1-2.973.8H5.013C4.952,19.035,4.886,19.036,4.809,19.036ZM1.011,17.4h0A4.662,4.662,0,0,1,0,14.456L.007,4.563A4.756,4.756,0,0,1,.744,1.985L1.9,2.67l9.01,5.349L1.978,16.486l-.967.914Zm29.85-.005h0l-.975-.927-8.92-8.474,9-5.324,1.16-.679a4.534,4.534,0,0,1,.715,2.59v9.874a4.4,4.4,0,0,1-.981,2.939Zm-15-7.938h0l-3.41-2.022a.7.7,0,0,0-.245-.137L2.838,1.755,1.6,1.026A5.324,5.324,0,0,1,4.764,0c.089,0,.173,0,.249.005H26.8l.133,0a5.723,5.723,0,0,1,3.277,1.022l-1.242.735-13.1,7.7Z" transform="translate(0 0)" fill="#fff"/>
</svg>
