<svg xmlns="http://www.w3.org/2000/svg" xmlns:xlink="http://www.w3.org/1999/xlink" width="203" height="56" viewBox="0 0 203 56">
  <defs>
    <clipPath id="clip-path">
      <rect id="Ret창ngulo_43" data-name="Ret창ngulo 43" width="19.768" height="32.946" fill="none"/>
    </clipPath>
  </defs>
  <g id="vistoria_digital" data-name="vistoria digital" transform="translate(-1500 -754)">
    <rect id="Ret창ngulo_4" data-name="Ret창ngulo 4" width="203" height="56" rx="28" transform="translate(1500 754)" fill="#fff"/>
    <text id="vistoria_digital-2" data-name="vistoria digital" transform="translate(1545 771)" fill="#fff" font-size="18" font-family="SegoeUI-Light, Segoe UI" font-weight="300"><tspan x="0" y="19">vistoria digital</tspan></text>
    <g id="cel" transform="translate(1516.957 765.527)">
      <g id="Grupo_2105" data-name="Grupo 2105" clip-path="url(#clip-path)">
        <path id="Caminho_313" data-name="Caminho 313" d="M140.651,42.667h-3.295a.824.824,0,1,0,0,1.647h3.295a.824.824,0,0,0,0-1.647" transform="translate(-127.747 -39.921)" fill="#fff"/>
        <path id="Caminho_314" data-name="Caminho 314" d="M16.473,0H3.295A3.3,3.3,0,0,0,0,3.295V29.652a3.3,3.3,0,0,0,3.295,3.295H16.473a3.3,3.3,0,0,0,3.295-3.295V3.295A3.3,3.3,0,0,0,16.473,0M18.12,29.652A1.647,1.647,0,0,1,16.473,31.3H3.295a1.647,1.647,0,0,1-1.647-1.647V3.295A1.647,1.647,0,0,1,3.295,1.647H16.473A1.647,1.647,0,0,1,18.12,3.295Z" fill="#fff"/>
        <path id="Caminho_315" data-name="Caminho 315" d="M129.647,418.133A1.647,1.647,0,1,1,128,419.78a1.647,1.647,0,0,1,1.647-1.647" transform="translate(-119.763 -391.227)" fill="#fff"/>
        <path id="Caminho_316" data-name="Caminho 316" d="M94.691,42.667a.824.824,0,1,1-.824.824.824.824,0,0,1,.824-.824" transform="translate(-87.827 -39.921)" fill="#fff"/>
      </g>
    </g>
  </g>
</svg>
